<svg xmlns="http://www.w3.org/2000/svg" xmlns:xlink="http://www.w3.org/1999/xlink"><defs><symbol viewBox="0 0 370 512" id="calculator"><path d="M323 512H47c-25.4 0-46-20.6-46-46V46C1 20.6 21.6 0 47 0h276c25.4 0 46 20.6 46 46v420c0 25.4-20.6 46-46 46zM47 32c-7.7 0-14 6.3-14 14v420c0 7.7 6.3 14 14 14h276c7.7 0 14-6.3 14-14V46c0-7.7-6.3-14-14-14H47z" /><path d="M261 200H109c-19.9 0-36-16.1-36-36v-40c0-19.9 16.1-36 36-36h152c19.9 0 36 16.1 36 36v40c0 19.9-16.1 36-36 36zm-152-80c-2.2 0-4 1.8-4 4v40c0 2.2 1.8 4 4 4h152c2.2 0 4-1.8 4-4v-40c0-2.2-1.8-4-4-4H109zM105 288c-8.8 0-16-7.2-16-16s7.2-16 16-16 16 7.2 16 16-7.1 16-16 16zM185 288c-8.8 0-16-7.2-16-16s7.2-16 16-16 16 7.2 16 16-7.1 16-16 16zM265 288c-8.8 0-16-7.2-16-16s7.2-16 16-16 16 7.2 16 16-7.1 16-16 16zM105 360c-8.8 0-16-7.2-16-16s7.2-16 16-16 16 7.2 16 16-7.1 16-16 16zM185 360c-8.8 0-16-7.2-16-16s7.2-16 16-16 16 7.2 16 16-7.1 16-16 16zM265 360c-8.8 0-16-7.2-16-16s7.2-16 16-16 16 7.2 16 16-7.1 16-16 16zM105 432c-8.8 0-16-7.2-16-16s7.2-16 16-16 16 7.2 16 16-7.1 16-16 16zM185 432c-8.8 0-16-7.2-16-16s7.2-16 16-16 16 7.2 16 16-7.1 16-16 16zM265 432c-8.8 0-16-7.2-16-16s7.2-16 16-16 16 7.2 16 16-7.1 16-16 16z" /></symbol><symbol viewBox="0 0 492 492" id="close"><path d="M300.188 246L484.14 62.04c5.06-5.064 7.852-11.82 7.86-19.024 0-7.208-2.792-13.972-7.86-19.028L468.02 7.872C462.952 2.796 456.196.016 448.984.016c-7.2 0-13.956 2.78-19.024 7.856L246.008 191.82 62.048 7.872C56.988 2.796 50.228.016 43.02.016c-7.2 0-13.96 2.78-19.02 7.856L7.872 23.988c-10.496 10.496-10.496 27.568 0 38.052L191.828 246 7.872 429.952C2.808 435.024.02 441.78.02 448.984c0 7.204 2.788 13.96 7.852 19.028l16.124 16.116c5.06 5.072 11.824 7.856 19.02 7.856 7.208 0 13.968-2.784 19.028-7.856l183.96-183.952 183.952 183.952c5.068 5.072 11.824 7.856 19.024 7.856h.008c7.204 0 13.96-2.784 19.028-7.856l16.12-16.116c5.06-5.064 7.852-11.824 7.852-19.028 0-7.204-2.792-13.96-7.852-19.028L300.188 246z" /></symbol><symbol viewBox="0 0 512.021 512.021" id="fractions-phone"><path d="M367.988 512.021c-16.528 0-32.916-2.922-48.941-8.744-70.598-25.646-136.128-67.416-189.508-120.795S34.389 263.572 8.744 192.974c-8.241-22.688-10.673-46.108-7.226-69.612 3.229-22.016 11.757-43.389 24.663-61.809 12.963-18.501 30.245-33.889 49.977-44.5C97.2 5.738 120.167 0 144.423 0a16.002 16.002 0 0115.645 12.647l25.114 117.199a16.004 16.004 0 01-4.331 14.667l-42.913 42.912c40.482 80.486 106.17 146.174 186.656 186.656l42.912-42.913a16.008 16.008 0 0114.667-4.331l117.199 25.114a16 16 0 0112.647 15.645c0 24.256-5.738 47.224-17.054 68.266-10.611 19.732-25.999 37.014-44.5 49.977-18.419 12.906-39.792 21.434-61.809 24.663a142.318 142.318 0 01-20.668 1.519zM131.639 32.7c-31.995 3.532-60.393 20.302-79.251 47.217-21.206 30.265-26.151 67.49-13.567 102.132C88.125 317.775 194.246 423.896 329.972 473.2c34.641 12.584 71.867 7.64 102.132-13.567 26.915-18.858 43.685-47.256 47.217-79.251l-95.341-20.43-44.816 44.816a15.998 15.998 0 01-18.117 3.168c-95.19-44.72-172.242-121.772-216.962-216.962a15.999 15.999 0 013.168-18.117l44.816-44.816zM496.02 272c-8.836 0-16-7.164-16-16 0-123.514-100.486-224-224-224-8.836 0-16-7.164-16-16s7.164-16 16-16c68.381 0 132.668 26.628 181.02 74.98S512.02 187.619 512.02 256c0 8.836-7.163 16-16 16z" /><path d="M432.02 272c-8.836 0-16-7.164-16-16 0-88.224-71.776-160-160-160-8.836 0-16-7.164-16-16s7.164-16 16-16c105.869 0 192 86.131 192 192 0 8.836-7.163 16-16 16z" /><path d="M368.02 272c-8.836 0-16-7.164-16-16 0-52.935-43.065-96-96-96-8.836 0-16-7.164-16-16s7.164-16 16-16c70.58 0 128 57.42 128 128 0 8.836-7.163 16-16 16z" /></symbol><symbol viewBox="0 0 24 24" id="kg"><path d="M6.75 19a.75.75 0 01-.75-.75v-6.5a.75.75 0 011.5 0v6.5a.75.75 0 01-.75.75zM15.5 19a2.503 2.503 0 01-2.5-2.5v-3c0-1.378 1.122-2.5 2.5-2.5s2.5 1.122 2.5 2.5v.25a.75.75 0 01-1.5 0v-.25c0-.551-.449-1-1-1s-1 .449-1 1v3a1.001 1.001 0 002 0h-.75a.75.75 0 010-1.5h1.5a.75.75 0 01.75.75v.75c0 1.379-1.122 2.5-2.5 2.5z" /><path d="M10.25 19.062a.75.75 0 01-.516-.205l-3.5-3.312a.753.753 0 01.006-1.095l3.5-3.25a.75.75 0 111.02 1.1l-2.914 2.705 2.919 2.763a.75.75 0 01-.515 1.294z" /><path d="M22.052 24H1.948c-.521 0-1.01-.229-1.344-.629s-.471-.923-.378-1.435l2.636-14.5A1.75 1.75 0 014.584 6h14.831c.846 0 1.57.604 1.722 1.437l2.636 14.5c.093.511-.044 1.034-.378 1.434s-.823.629-1.343.629zM4.584 7.5a.25.25 0 00-.246.206l-2.636 14.5c-.018.101.026.172.054.205s.09.09.192.09h20.104c.102 0 .164-.057.192-.09s.072-.104.054-.204l-2.636-14.5a.25.25 0 00-.246-.207z" /><path d="M12 7c-1.93 0-3.5-1.57-3.5-3.5S10.07 0 12 0s3.5 1.57 3.5 3.5S13.93 7 12 7zm0-5.5c-1.103 0-2 .897-2 2s.897 2 2 2 2-.897 2-2-.897-2-2-2z" /></symbol><symbol viewBox="0 0 524.44 589.69" id="logo"><defs></defs><g data-name="Слой 2"><g data-name="Слой 1"><g data-name="fcf62a98-71eb-4bc4-9ea3-77905e588e21"><g data-name="ce01f871-70ba-4020-80b3-0270b48cd0ee"><g clip-path="url(#logo_a)"><path d="M296.67 589.69c-83.2-19.2-143.2-33.5-206.8-67.6-38-20.3-73.9-43.9-86-87.7-23.8-86.9 67.2-143 133.1-91.2 25.3 20.1 28.7 42.8 37.4 72.4 24.4 85.1 44.5 123.5 122.3 174.1" fill="#7cd1f1" /></g><g clip-path="url(#logo_a)"><path d="M128.57 510.99c-35-10.8-107.6-48.4-109.5-94.6-1.5-39.3 42.8-54.2 65.7-25.9 8.6 11 8 21.2 8.6 34.6 2.1 38.4 6.9 57 35.2 85.9" fill="#fff" /></g><g clip-path="url(#logo_a)"><path d="M160.77 328.49c-13.8-40-24.2-68.9-44.3-98.3-12.1-17.8-25.7-34.4-48.2-37.8-43.9-7-66.5 41-37.6 70.6 11.2 11.2 22.7 11.9 37.6 14.5 43.4 7.5 63.3 15.3 92.5 51" fill="#bae5f7" /></g><g clip-path="url(#logo_a)"><path d="M113.17 249.79c-9.7-15.8-17.1-27-28.7-37.8-6.7-6.3-14-11.7-24-11.2-19.2 1.3-24.4 24-9.3 33.7 5.8 4.1 11 2.8 17.7 2.6 19.1-1.1 28.6.2 44.3 12.7" fill="#fff" /></g><g clip-path="url(#logo_a)"><path d="M267.47 532.59c-54.9-46.7-83.4-168.3-81.9-303.1 0-9.9-.4-14.5-8.6-21-5.6-4.5-11.7-6-22.5-6-17.3 0-42.8 6.7-21.6-23.1 27.7-38.2 55.7-39.7 89.7-49.3 38-58.3 148.6-169.6 242.4-115.8 10.4 6 11.4 7.1 23.8 5.6 12.7-1.5 24-7.3 32-1.9 8.6 5.6.6 14.5-8.9 22-14 11-29.2 18.4-44.5 27-25.5 14.5-49.3 30.7-70.9 50.6 6.3 42.1 8.4 61.6-5 77.3-3.7 4.3-15.8 18.6-16 4.5-.2-17.7-2.8-30.5-17.1-38.5-38.2 55.3-60.1 103.5-73.7 172.8-11.7 60.3-15.1 119.9-1.5 179.5 1.7 8.2 4.3 13.4 4.5 19.2.2 6.7-4.3 10.4-10.6 7.6-2.7-1.3-4.8-3.3-9.6-7.4" fill="#000200" /></g><g clip-path="url(#logo_a)"><path d="M266.17 456.59c-2.6-100.3 24.8-220.4 86.6-302 32.6-42.8 73.7-72.8 124.9-99.8 5.4-2.8 23.8-11.2 23.3-17.5-.6-7.6-15.6-4.1-25.9-1.3-48.8 13.4-87.3 32-152.5 94.4 2.4 24.2 3.9 37.2-3 54.9-4.7 11.9-11.2 14-12.3 7.6-2.6-13.4-3-18.4-14.5-25.1-47.3 68.5-67 165.5-38.9 293 2.2 7.6 5.2 9.3 8.2 8.4 2.8-1.2 3.9-5.7 4.1-12.6" fill="#fff" /></g><g clip-path="url(#logo_a)"><path d="M316.77 570.89c-11-76.7-18.4-132.2-10.6-197.3 4.8-38.7 12.7-76.9 46-101.5 65.7-48.4 143.5 9.9 121 82.8-8.6 27.9-26.8 38.5-49 55.3-64 48.8-90.2 78.2-107.4 160.7" fill="#7cd1f1" /></g><g clip-path="url(#logo_a)"><path d="M318.87 386.39c2.6-31.1 6.1-51.6 18.6-76.1 7.6-14.7 21.6-32 38.5-36.9 32.8-9.5 55.1 24.6 35.6 50.3-7.3 9.7-16 11.2-27.2 14.7-32.4 9.9-46.9 17.9-65.5 48" fill="#fff" /></g><g clip-path="url(#logo_a)"><path d="M343.77 544.69c17.9-28.1 31.1-52.3 52.1-71.3 12.7-11.2 27.2-21.4 44.9-20.3 35.2 2.6 42.6 48 14.7 65.3-10.6 6.9-19.4 5.2-31.3 4.5-34.9-2.6-51.7 0-80.4 21.8" fill="#bae5f7" /></g><g clip-path="url(#logo_a)"><path d="M392.17 484.89c10.8-9.9 34.1-30.2 52.1-22.9 14 6 12.1 24.4-1.9 27.7-5.6 1.3-9.1-.6-13.8-2.6-14.2-5.9-21.5-7.2-36.4-2.2" fill="#fff" /></g></g></g></g></g></symbol><clipPath id="logo_a" transform="translate(-2.93 -2.61)"><path fill="none" d="M0 0h531.1v595.3H0z" /></clipPath><symbol viewBox="0 0 512.001 512.001" id="marketing"><path d="M446.977 201.914L277.316 32.253c-17.539-17.54-46.081-17.541-63.622 0-15.768 15.767-17.126 39.814-5.482 56.985l-.236 1.181c-12.232 61.165-42.011 116.809-86.12 160.917l-77.819 77.819c-17.582 17.583-17.585 46.039 0 63.622l42.414 42.414c17.581 17.582 46.039 17.583 63.622 0l10.604-10.604 74.226 74.226c17.582 17.583 46.038 17.584 63.621 0 17.541-17.54 17.541-46.081 0-63.621l-31.811-31.811 10.604-10.604c17.582-17.581 17.584-46.037 0-63.621l-7.206-7.207c35.449-24.819 75.708-42.098 118.701-50.697l1.196-.239c17.553 11.851 41.544 9.946 56.969-5.479h.001c17.538-17.539 17.538-46.079-.001-63.62zm-318.111 212.07c-5.86 5.859-15.348 5.86-21.208-.001l-42.414-42.414c-5.861-5.862-5.861-15.346 0-21.207l74.225-74.226 63.622 63.622-74.225 74.226zm148.45 42.414c5.846 5.846 5.846 15.36 0 21.207-5.846 5.846-15.361 5.846-21.207 0l-74.226-74.226 21.208-21.207 74.225 74.226zm-53.018-95.433c4.508-4.508 11.256-11.413 21.906-20.509l9.905 9.906c5.861 5.861 5.861 15.345 0 21.207l-10.604 10.604-21.207-21.208zm.637-41.776l-64.898-64.898c34.779-40.159 59.685-87.564 73.01-139.064l130.952 130.952c-51.5 13.324-98.904 38.23-139.064 73.01zm200.832-74.863c-5.861 5.86-15.346 5.86-21.207 0L234.901 74.667c-5.861-5.862-5.861-15.346 0-21.207 5.861-5.861 15.347-5.861 21.208 0l169.658 169.658c5.846 5.847 5.846 15.36 0 21.208z" /><path d="M150.072 329.154c-5.855-5.856-15.351-5.856-21.207 0l-21.207 21.207c-5.856 5.856-5.856 15.351 0 21.207 5.855 5.856 15.352 5.856 21.207 0l21.207-21.207c5.856-5.856 5.856-15.351 0-21.207zM346.19 0c-8.282 0-14.996 6.714-14.996 14.996v29.992c0 8.282 6.714 14.996 14.996 14.996s14.996-6.714 14.996-14.996V14.996C361.186 6.714 354.472 0 346.19 0zM466.157 119.966h-29.992c-8.282 0-14.996 6.714-14.996 14.996s6.714 14.996 14.996 14.996h29.992c8.282 0 14.996-6.714 14.996-14.996s-6.715-14.996-14.996-14.996zM446.769 34.383c-5.855-5.856-15.351-5.856-21.207 0L395.57 64.375c-5.856 5.856-5.856 15.351 0 21.207 5.855 5.856 15.351 5.857 21.207 0l29.992-29.992c5.856-5.856 5.856-15.35 0-21.207z" /></symbol><symbol viewBox="0 0 512 512" id="medal"><path d="M430.656 19.562A8 8 0 00424 16H320a8 8 0 00-7.385 4.923L256 156.8 199.385 20.923A8 8 0 00192 16H88a8 8 0 00-7.385 11.077L151.3 196.718A167.766 167.766 0 0088 328c0 92.636 75.364 168 168 168s168-75.364 168-168a167.766 167.766 0 00-63.3-131.282l70.685-169.641a8 8 0 00-.729-7.515zM301.4 166.238L357.333 32H380l-58.818 141.162a166.679 166.679 0 00-19.782-6.924zM325.333 32H340l-54.421 130.609q-6.851-1.222-13.887-1.87zm-85.025 128.739q-7.029.654-13.887 1.87L172 32h14.667zm-49.49 12.423L132 32h22.667L210.6 166.238a166.679 166.679 0 00-19.782 6.924zM100 32h14.667l61.708 148.1q-6.029 3.26-11.753 6.991zm308 296c0 83.813-68.187 152-152 152s-152-68.187-152-152 68.187-152 152-152 152 68.187 152 152zm-60.622-140.908q-5.723-3.723-11.753-6.991L397.333 32H412z" /><path d="M128 328a128 128 0 10128-128 128.146 128.146 0 00-128 128zm240 0a112 112 0 11-112-112 112.127 112.127 0 01112 112z" /><path d="M248.773 244.567L229 286.2l-46.19 6.947a8 8 0 00-4.611 13.42l32.9 34.632-13.22 48.701a8 8 0 0011.844 8.951L256 371.021l46.277 27.834a8 8 0 0011.844-8.951l-13.221-48.71 32.9-34.632a8 8 0 00-4.611-13.42L283 286.2l-19.772-41.628a8 8 0 00-14.454 0zm21.6 52.339a8 8 0 006.037 4.479l35.21 5.3-25.42 26.753a8 8 0 00-1.921 7.605l9.186 33.841-33.342-20.055a8 8 0 00-8.246 0l-33.342 20.055 9.186-33.841a8 8 0 00-1.921-7.605l-25.42-26.758 35.21-5.3a8 8 0 006.037-4.479L256 266.646z" /></symbol><symbol viewBox="0 0 24.75 24.75" id="menu"><path d="M0 3.875a2 2 0 012-2h20.75a2 2 0 010 4H2a2 2 0 01-2-2zm22.75 6.5H2a2 2 0 000 4h20.75a2 2 0 000-4zm0 8.5H2a2 2 0 000 4h20.75a2 2 0 000-4z" /></symbol><symbol viewBox="0 0 16.9 16.2" id="price"><path d="M3.2.133c-1.5 0-2.6 1.2-2.6 2.6 0 .3.2.5.5.5s.5-.2.5-.5c0-.9.7-1.6 1.6-1.6.7 0 1.3.4 1.5 1.1H3.2c-.3 0-.5.2-.5.5v5.3c0 .1.1.3.2.4l7.4 7.4c.2.2.5.2.7 0l5.3-5.3c.2-.2.2-.5 0-.7l-7.4-7.4c-.1-.1-.2-.2-.4-.2H5.8c-.3-1.2-1.4-2.1-2.6-2.1zm.5 3.2h1c-.1.2-.2.4-.4.6-.2.2-.2.5 0 .7.2.2.5.2.7 0 .3-.4.6-.8.7-1.3h2.5l6.9 6.9-4.5 4.5-6.9-6.9v-4.5z" /><path d="M12.3 8.733l-3.2 3.2.7.7 3.2-3.2-.7-.7z" /></symbol><symbol viewBox="0 0 24 24" id="push-cart"><path d="M23.25 24a.748.748 0 01-.615-.32l-1.153-1.646a1.252 1.252 0 00-1.024-.533H11.45a.75.75 0 010-1.501h9.008a2.75 2.75 0 012.253 1.174l1.153 1.646A.75.75 0 0123.25 24zM8.379 19.16a.749.749 0 01-.733-.599L4.34 2.527a1.258 1.258 0 00-1.208-.997L.741 1.5C.326 1.495-.005 1.154 0 .74S.312-.015.759 0L3.15.03c1.282.016 2.4.938 2.659 2.194l3.305 16.034a.75.75 0 01-.735.902z" /><path d="M9 23.997c-1.654 0-3-1.346-3-3s1.346-3 3-3 3 1.346 3 3-1.346 3-3 3zm0-4.5c-.827 0-1.5.673-1.5 1.5s.673 1.5 1.5 1.5 1.5-.673 1.5-1.5-.673-1.5-1.5-1.5zM19.25 19h-5.5a.75.75 0 010-1.5h4.75v-7h-7v5.75a.75.75 0 01-1.5 0v-6.5a.75.75 0 01.75-.75h8.5a.75.75 0 01.75.75v8.5a.75.75 0 01-.75.75z" /><path d="M16.25 13h-2.5a.75.75 0 01-.75-.75v-2.5a.75.75 0 01.75-.75h2.5a.75.75 0 01.75.75v2.5a.75.75 0 01-.75.75zm-1.75-1.5h1v-1h-1z" /></symbol><symbol viewBox="0 0 512 512" id="receipt"><path d="M466 130c8.284 0 15-6.716 15-15V65c0-35.841-29.159-65-65-65H96C60.159 0 31 29.159 31 65v382c0 35.841 29.159 65 65 65h320c35.841 0 65-29.159 65-65v-50c0-8.284-6.716-15-15-15h-85V130zm-85-65c0-19.299 15.701-35 35-35s35 15.701 35 35v35h-70zm-19.751 417H96c-19.299 0-35-15.701-35-35V65c0-19.299 15.701-35 35-35h265.249A64.627 64.627 0 00351 65v382a64.627 64.627 0 0010.249 35zM451 412v35c0 19.299-15.701 35-35 35s-35-15.701-35-35v-35z" /><path d="M106 196h110c8.284 0 15-6.716 15-15s-6.716-15-15-15H106c-8.284 0-15 6.716-15 15s6.716 15 15 15zM306 166h-30c-8.284 0-15 6.716-15 15s6.716 15 15 15h30c8.284 0 15-6.716 15-15s-6.716-15-15-15zM306 76H196c-8.284 0-15 6.716-15 15s6.716 15 15 15h110c8.284 0 15-6.716 15-15s-6.716-15-15-15zM106 106h30c8.284 0 15-6.716 15-15s-6.716-15-15-15h-30c-8.284 0-15 6.716-15 15s6.716 15 15 15zM106 256h110c8.284 0 15-6.716 15-15s-6.716-15-15-15H106c-8.284 0-15 6.716-15 15s6.716 15 15 15zM306 226h-30c-8.284 0-15 6.716-15 15s6.716 15 15 15h30c8.284 0 15-6.716 15-15s-6.716-15-15-15zM106 316h110c8.284 0 15-6.716 15-15s-6.716-15-15-15H106c-8.284 0-15 6.716-15 15s6.716 15 15 15zM306 286h-30c-8.284 0-15 6.716-15 15s6.716 15 15 15h30c8.284 0 15-6.716 15-15s-6.716-15-15-15zM106 376h110c8.284 0 15-6.716 15-15s-6.716-15-15-15H106c-8.284 0-15 6.716-15 15s6.716 15 15 15zM306 346h-30c-8.284 0-15 6.716-15 15s6.716 15 15 15h30c8.284 0 15-6.716 15-15s-6.716-15-15-15zM306 406H106c-8.284 0-15 6.716-15 15s6.716 15 15 15h200c8.284 0 15-6.716 15-15s-6.716-15-15-15z" /></symbol><symbol viewBox="0 0 64 69" id="rock"><path d="M58.9 24.3c0 .1 0 .1.1.2v.1l5 22c.2.9-.2 1.8-1 2.2L25 68.7c-.1.1-.2.1-.3.2-.5.2-1.1.2-1.5-.1-.3-.1-.5-.3-.7-.5-.1-.1-.1-.2-.2-.3L3.4 38.1c-.1-.2-.2-.3-.3-.5 0-.1-.1-.2-.1-.3l-3-15c-.2-.8.2-1.6.8-2l27-19c.6-.3 1.2-.4 1.8-.2l21.9 5c.7.2 1.2.6 1.4 1.3l6 16.9zM4.2 22.9l2.2 10.9 15.8-10 3.7-16.1L4.2 22.9zm3.6 14.7l15.9 25.2 10.9-24.3-10.9-11L7.8 37.6zm29.5-2.2l17.3-11.3-5.1-14.4-19-4.3-4.3 19 11.1 11zm1.3 4L28.2 62.5l31.5-16.6-4-17.7-17.1 11.2z" fill-rule="evenodd" clip-rule="evenodd" /></symbol><symbol viewBox="0 0 511.81 511.81" id="truck"><path d="M511.801 258.151c-.042-1.566-.304-3.788-1.373-6.108l-49.882-107.939c-4.786-10.356-15.259-17.048-26.681-17.048h-73.61v-12.852c0-14.367-11.705-26.056-26.092-26.056H26.092C11.705 88.148 0 99.837 0 114.204v177.758c0 14.367 11.705 26.056 26.092 26.056h14.51v41.831c0 16.658 13.571 30.211 30.253 30.211h34.098c5.149 19.322 22.814 33.602 43.761 33.602 20.939 0 38.597-14.269 43.755-33.579h185.316c5.157 19.31 22.816 33.579 43.755 33.579s38.597-14.269 43.755-33.579h17.779c15.769 0 28.611-12.811 28.627-28.558l.11-103.181c-.001-.065-.009-.129-.01-.193zm-38.487-14.823h-56.663v-25.939h44.675zM30.042 118.148h300.172v169.87H30.042zm40.602 241.701v-41.831h259.57v42.065h-140.13c-7.063-15.81-22.943-26.864-41.369-26.864-18.417 0-34.29 11.042-41.359 26.84H70.855a.21.21 0 01-.211-.21zm78.07 33.813c-8.405 0-15.242-6.828-15.242-15.221s6.838-15.221 15.242-15.221 15.242 6.828 15.242 15.221-6.837 15.221-15.242 15.221zm272.825 0c-8.405 0-15.242-6.828-15.242-15.221s6.838-15.221 15.242-15.221c8.405 0 15.242 6.828 15.242 15.221s-6.837 15.221-15.242 15.221zm60.122-33.579h-18.752c-7.063-15.81-22.943-26.864-41.369-26.864s-34.306 11.053-41.369 26.864h-19.915V157.056h73.19l14.018 30.333h-38.837c-12.14 0-22.016 9.863-22.016 21.986v40.417c0 12.978 10.573 23.537 23.569 23.537h71.573z" /><path d="M76.184 259.767c8.296 0 15.021-6.716 15.021-15v-81.963c0-8.284-6.725-15-15.021-15s-15.021 6.716-15.021 15v81.963c0 8.284 6.725 15 15.021 15zM144.963 259.482c8.296 0 15.021-6.716 15.021-15V162.52c0-8.284-6.725-15-15.021-15s-15.021 6.716-15.021 15v81.962c.001 8.285 6.726 15 15.021 15zM213.743 257.763c8.296 0 15.021-6.716 15.021-15V160.8c0-8.284-6.725-15-15.021-15s-15.021 6.716-15.021 15v81.963c0 8.284 6.725 15 15.021 15zM282.522 258.909c8.296 0 15.021-6.716 15.021-15v-81.962c0-8.284-6.725-15-15.021-15s-15.021 6.716-15.021 15v81.962c0 8.284 6.725 15 15.021 15z" /></symbol><symbol viewBox="0 0 512 512" id="wheat"><path d="M454.8 403.6c11.3-94.5 12.1-193.6 0-295.2v-.1c32.1-29.7 34.8-72.7 16.7-93-18.4-20.6-62.4-22.5-95.5 7.2h-.1c-79.5-11-160.2-11-239.8 0h-.1C102.8-7.3 58.8-5.2 40.5 15.3c-18.1 20.3-15.4 63.3 16.7 93v.1c-11.2 94.5-12 193.6.1 295.2v.1c-15.7 14.5-25.6 33.4-27.6 53.1-6.1 61.1 64 70.7 106.4 32.8h.1c79.5 11 160.2 11 239.8 0h.1c33.1 29.7 77.2 27.7 95.5 7.1 18-20.3 15.4-63.4-16.8-93.1zm-7.9 71.1c-5.6 6.2-32.2 8.6-53-13.9-3.7-4-9.1-5.9-14.5-5.1-81.6 12.1-164.8 12.1-246.5 0-5.4-.8-10.8 1.1-14.5 5.1-20.9 22.6-47.5 20.1-53 13.9-5.5-6.2-4.9-32.7 19.5-50.9 4.8-3.6 7.2-9.4 6.5-15.3-12.3-97.3-13.3-199.9 0-304.9.7-5.9-1.7-11.7-6.5-15.3-24.6-18.3-25.3-44.7-19.7-51 5.6-6.2 32.2-8.6 53 13.9 3.7 4 9.1 5.9 14.5 5.1 81.6-12.1 164.8-12.1 246.5 0 5.4.8 10.8-1.1 14.5-5.1 20.8-22.5 47.4-20.2 53-13.9 5.5 6.2 4.9 32.7-19.5 50.9-4.8 3.6-7.2 9.4-6.5 15.3 12.3 97.3 13.3 199.9 0 304.9-.7 5.9 1.7 11.7 6.5 15.3 24.5 18.3 25.2 44.7 19.7 51z" /></symbol></defs></svg>